<svg width="31" height="22" viewBox="0 0 31 22" fill="none" xmlns="http://www.w3.org/2000/svg">
<g clip-path="url(#clip0_4_349)">
<path d="M19.0263 0.0519351C18.2028 -0.158612 17.3455 0.266779 17.1081 0.997248L10.9081 20.2472C10.6708 20.9777 11.1503 21.7383 11.9738 21.9488C12.7972 22.1594 13.6545 21.734 13.8919 21.0035L20.0919 1.7535C20.3292 1.02303 19.8497 0.262482 19.0263 0.0519351ZM22.9303 5.21248C22.3249 5.74959 22.3249 6.62186 22.9303 7.15897L27.2558 11.0004L22.9255 14.8418C22.32 15.3789 22.32 16.2512 22.9255 16.7883C23.5309 17.3254 24.5142 17.3254 25.1197 16.7883L30.5447 11.9758C31.1502 11.4387 31.1502 10.5664 30.5447 10.0293L25.1197 5.21678C24.5142 4.67967 23.5309 4.67967 22.9255 5.21678L22.9303 5.21248ZM8.07454 5.21248C7.46907 4.67537 6.48579 4.67537 5.88032 5.21248L0.455322 10.025C-0.150146 10.5621 -0.150146 11.4344 0.455322 11.9715L5.88032 16.784C6.48579 17.3211 7.46907 17.3211 8.07454 16.784C8.68001 16.2469 8.68001 15.3746 8.07454 14.8375L3.74423 11.0004L8.07454 7.15897C8.68001 6.62186 8.68001 5.74959 8.07454 5.21248Z" fill="black"/>
</g>
<defs>
<clipPath id="clip0_4_349">
<rect width="31" height="22" fill="white"/>
</clipPath>
</defs>
</svg>
