<?xml version="1.0" standalone="no"?>
<!DOCTYPE svg PUBLIC "-//W3C//DTD SVG 20010904//EN"
 "http://www.w3.org/TR/2001/REC-SVG-20010904/DTD/svg10.dtd">
<svg version="1.0" xmlns="http://www.w3.org/2000/svg"
 width="236.000000pt" height="214.000000pt" viewBox="0 0 236.000000 214.000000"
 preserveAspectRatio="xMidYMid meet">

<g transform="translate(0.000000,214.000000) scale(0.100000,-0.100000)"
fill="#000000" stroke="none">
<path d="M1285 2019 c-172 -23 -339 -134 -423 -279 -14 -25 -26 -46 -27 -48
-1 -1 -29 10 -61 25 -176 82 -389 -33 -420 -227 -6 -35 -12 -43 -41 -55 -60
-25 -131 -84 -173 -143 -165 -229 -61 -555 207 -655 52 -19 83 -21 294 -25
210 -3 238 -2 252 13 20 20 22 48 4 63 -8 7 -103 12 -252 14 -239 3 -240 3
-297 31 -71 35 -129 91 -165 159 -25 48 -28 63 -28 153 0 90 3 105 28 153 38
73 96 127 175 165 l67 32 7 53 c14 96 56 154 138 191 76 35 166 21 232 -34 47
-40 68 -30 108 50 73 145 221 252 380 276 246 38 490 -126 555 -372 8 -30 15
-91 15 -136 0 -94 2 -97 88 -106 96 -11 183 -74 234 -170 19 -35 23 -58 23
-137 0 -80 -4 -102 -23 -138 -30 -56 -91 -114 -150 -143 -45 -23 -58 -24 -302
-27 -157 -2 -260 -8 -267 -14 -18 -14 -16 -43 3 -62 13 -14 49 -16 239 -16
128 0 247 5 277 11 199 42 329 216 315 419 -11 167 -119 298 -286 347 l-58 17
-6 76 c-12 144 -68 263 -176 371 -132 132 -307 193 -486 168z"/>
<path d="M1158 1099 c-17 -9 -18 -40 -18 -414 0 -223 -3 -405 -8 -405 -4 0
-41 34 -82 75 -76 76 -105 90 -130 60 -23 -28 -1 -60 130 -190 l130 -130 130
130 c131 130 153 162 130 190 -25 30 -54 16 -130 -60 -41 -41 -78 -75 -82 -75
-5 0 -8 182 -8 405 0 389 -1 405 -19 415 -23 12 -22 12 -43 -1z"/>
</g>
</svg>
