<svg width="22" height="26" viewBox="0 0 22 26" fill="none" xmlns="http://www.w3.org/2000/svg">
<g clip-path="url(#clip0_4_353)">
<path d="M3.66667 23.5625C3.1625 23.5625 2.75 23.1969 2.75 22.75V3.25C2.75 2.80312 3.1625 2.4375 3.66667 2.4375H12.8333V6.5C12.8333 7.39883 13.6526 8.125 14.6667 8.125H19.25V22.75C19.25 23.1969 18.8375 23.5625 18.3333 23.5625H3.66667ZM3.66667 0C1.64427 0 0 1.45742 0 3.25V22.75C0 24.5426 1.64427 26 3.66667 26H18.3333C20.3557 26 22 24.5426 22 22.75V7.8457C22 6.98242 21.6161 6.15469 20.9286 5.54531L15.738 0.949609C15.0505 0.340234 14.1224 0 13.1484 0H3.66667ZM9.22396 14.6758C9.7625 14.1984 9.7625 13.4266 9.22396 12.9543C8.68542 12.482 7.81458 12.477 7.28177 12.9543L4.52604 15.3867C3.9875 15.8641 3.9875 16.6359 4.52604 17.1082L7.27604 19.5457C7.81458 20.023 8.68542 20.023 9.21823 19.5457C9.75104 19.0684 9.75677 18.2965 9.21823 17.8242L7.44219 16.25L9.21823 14.6758H9.22396ZM14.724 12.9492C14.1854 12.4719 13.3146 12.4719 12.7818 12.9492C12.249 13.4266 12.2432 14.1984 12.7818 14.6707L14.5578 16.2449L12.7818 17.8191C12.2432 18.2965 12.2432 19.0684 12.7818 19.5406C13.3203 20.0129 14.1911 20.018 14.724 19.5406L17.474 17.1031C18.0125 16.6258 18.0125 15.8539 17.474 15.3816L14.724 12.9441V12.9492Z" fill="#0075FF"/>
</g>
<defs>
<clipPath id="clip0_4_353">
<rect width="22" height="26" fill="white"/>
</clipPath>
</defs>
</svg>
