<svg width="101" height="90" viewBox="0 0 101 90" fill="none" xmlns="http://www.w3.org/2000/svg">
<path d="M10.1 16.875C10.1 10.6699 14.6292 5.625 20.2 5.625H80.8C86.3708 5.625 90.9 10.6699 90.9 16.875V61.875H80.8V16.875H20.2V61.875H10.1V16.875ZM0 70.875C0 69.0117 1.35719 67.5 3.03 67.5H97.97C99.6428 67.5 101 69.0117 101 70.875C101 78.3281 95.5713 84.375 88.88 84.375H12.12C5.42875 84.375 0 78.3281 0 70.875ZM44.3453 36.7383L39.4531 42.1875L44.3453 47.6367C45.8288 49.2891 45.8288 51.9609 44.3453 53.5957C42.8619 55.2305 40.4631 55.248 38.9955 53.5957L31.4205 45.1582C29.937 43.5059 29.937 40.834 31.4205 39.1992L38.9955 30.7617C40.4789 29.1094 42.8777 29.1094 44.3453 30.7617C45.813 32.4141 45.8288 35.0859 44.3453 36.7207V36.7383ZM62.0203 30.7617L69.5953 39.1992C71.0788 40.8516 71.0788 43.5234 69.5953 45.1582L62.0203 53.5957C60.5369 55.248 58.1381 55.248 56.6705 53.5957C55.2028 51.9434 55.187 49.2715 56.6705 47.6367L61.5627 42.1875L56.6705 36.7383C55.187 35.0859 55.187 32.4141 56.6705 30.7793C58.1539 29.1445 60.5527 29.127 62.0203 30.7793V30.7617Z" fill="#0075FF"/>
</svg>
