<svg width="35" height="32" viewBox="0 0 35 32" fill="none" xmlns="http://www.w3.org/2000/svg">
<path d="M9.72995 3.07193C4.82995 5.43993 1.95995 9.47193 1.53995 14.5919C1.04995 21.6319 6.99995 28.2879 14.56 29.2479C18.13 29.6959 21 29.0559 21 27.8399C21 26.7519 19.88 26.5599 19.25 27.5199C18.34 28.9279 17.5 28.0319 17.5 25.5999C17.5 23.2959 17.71 23.0399 19.25 23.0399C20.23 23.0399 21 22.7199 21 22.3999C21 22.0159 20.23 21.7599 19.25 21.7599C17.64 21.7599 17.5 21.5039 17.5 18.8799C17.5 16.2559 17.64 15.9999 19.25 15.9999C20.23 15.9999 21 15.6799 21 15.3599C21 14.9759 20.23 14.7199 19.25 14.7199C17.64 14.7199 17.5 14.4639 17.5 11.8399V8.95993H20.93H24.36L24.85 11.6479C25.48 15.1679 26.25 15.9999 28.84 15.9999C30.73 15.9999 30.94 16.1919 30.52 17.5359C30.31 18.4319 30.38 19.2639 30.73 19.5199C31.15 19.7119 31.64 18.8159 31.92 17.5999C33.11 11.8399 29.82 5.88793 23.87 3.07193C18.9 0.70393 14.7 0.70393 9.72995 3.07193ZM16.1 5.11993V7.67993H13.3C11.76 7.67993 10.5 7.48793 10.5 7.16793C10.57 6.07993 14.42 2.75193 15.96 2.55993C16.03 2.55993 16.1 3.71193 16.1 5.11993ZM21.07 4.41593C23.8 6.97593 23.66 7.67993 20.3 7.67993H17.5V5.11993C17.5 2.04793 18.27 1.91993 21.07 4.41593ZM9.44995 6.01593C8.74995 6.97593 7.62995 7.67993 6.71995 7.67993C5.38995 7.61593 5.52995 7.42393 7.62995 5.75993C10.43 3.58393 11.13 3.64793 9.44995 6.01593ZM25.9 5.75993C28.28 7.61593 28.35 7.61593 26.6 7.67993C25.34 7.67993 24.5 7.10393 23.66 5.75993C22.12 3.32793 22.82 3.32793 25.9 5.75993ZM7.41995 10.9439C7.20995 12.0319 6.99995 13.3759 6.99995 13.8239C6.99995 14.3999 6.22995 14.7199 4.89995 14.7199C2.51995 14.7199 2.51995 14.6559 3.56995 11.3279C4.12995 9.40793 4.54995 8.95993 6.08995 8.95993C7.69995 8.95993 7.83995 9.15193 7.41995 10.9439ZM16.1 11.8399V14.7199H12.25C8.11995 14.7199 8.04995 14.6559 8.81995 10.9439C9.23995 9.02393 9.44995 8.95993 12.67 8.95993H16.1V11.8399ZM30.03 11.3279C31.08 14.6559 31.08 14.7199 28.7 14.7199C27.37 14.7199 26.6 14.3999 26.6 13.8239C26.6 13.3759 26.39 12.0319 26.18 10.9439C25.76 9.15193 25.9 8.95993 27.51 8.95993C29.05 8.95993 29.47 9.40793 30.03 11.3279ZM6.99995 16.8959C6.99995 17.3439 7.20995 18.6879 7.41995 19.7759C7.83995 21.5679 7.69995 21.7599 6.08995 21.7599C4.54995 21.7599 4.12995 21.3119 3.56995 19.3279C2.51995 16.0639 2.51995 15.9999 4.89995 15.9999C6.22995 15.9999 6.99995 16.3199 6.99995 16.8959ZM16.1 18.8799V21.7599H12.67C9.44995 21.7599 9.23995 21.6959 8.81995 19.7759C8.04995 16.0639 8.11995 15.9999 12.25 15.9999H16.1V18.8799ZM9.44995 24.7039C11.13 27.0719 10.43 27.1359 7.62995 24.9599C5.52995 23.2959 5.38995 23.1039 6.71995 23.0399C7.62995 23.0399 8.74995 23.7439 9.44995 24.7039ZM16.1 25.5999C16.1 28.0959 16.03 28.1599 14.56 27.4559C12.88 26.6879 10.57 24.3839 10.5 23.4879C10.5 23.2319 11.76 23.0399 13.3 23.0399H16.1V25.5999Z" fill="#0075FF"/>
<path d="M23.0999 22.7199C23.0999 26.4319 23.3099 29.4399 23.5899 29.4399C23.7999 29.4399 24.5699 28.9919 25.1999 28.4799C26.3199 27.5839 26.4599 27.6479 27.2999 29.4399C27.9999 30.9759 28.4899 31.2959 29.6799 30.9759C31.9199 30.3359 32.4099 29.6959 31.5699 28.2879C30.3799 26.2399 30.6599 25.5999 32.5499 25.5999C33.5299 25.5999 34.2999 25.4079 34.2999 25.0879C34.2999 24.5759 24.1499 15.9999 23.5199 15.9999C23.3099 15.9999 23.0999 19.0079 23.0999 22.7199ZM30.1699 24.1919C28.4899 24.4479 28.4899 24.3839 29.8899 28.2879C30.5199 30.2079 28.9099 29.5679 27.9999 27.5199C27.0199 25.4079 26.5999 25.2159 25.3399 26.3679C24.7099 26.9439 24.4999 26.1759 24.4999 22.7839V18.4319L28.1399 21.2479C31.4299 23.7439 31.6399 23.9999 30.1699 24.1919Z" fill="#0075FF"/>
</svg>
