<?xml version="1.0" standalone="no"?>
<!DOCTYPE svg PUBLIC "-//W3C//DTD SVG 20010904//EN"
 "http://www.w3.org/TR/2001/REC-SVG-20010904/DTD/svg10.dtd">
<svg version="1.0" xmlns="http://www.w3.org/2000/svg"
 width="50.000000pt" height="50.000000pt" viewBox="0 0 50.000000 50.000000"
 preserveAspectRatio="xMidYMid meet">

<g transform="translate(0.000000,50.000000) scale(0.100000,-0.100000)"
fill="#000000" stroke="none">
<path d="M139 452 c-70 -37 -111 -100 -117 -180 -7 -110 78 -214 186 -229 51
-7 92 3 92 22 0 17 -16 20 -25 5 -13 -22 -25 -8 -25 30 0 36 3 40 25 40 14 0
25 5 25 10 0 6 -11 10 -25 10 -23 0 -25 4 -25 45 0 41 2 45 25 45 14 0 25 5
25 10 0 6 -11 10 -25 10 -23 0 -25 4 -25 45 l0 45 49 0 49 0 7 -42 c9 -55 20
-68 57 -68 27 0 30 -3 24 -24 -3 -14 -2 -27 3 -31 6 -3 13 11 17 30 17 90 -30
183 -115 227 -71 37 -131 37 -202 0z m91 -32 l0 -40 -40 0 c-22 0 -40 3 -40 8
1 17 56 69 78 72 1 0 2 -18 2 -40z m71 11 c39 -40 37 -51 -11 -51 l-40 0 0 40
c0 48 11 50 51 11z m-166 -25 c-10 -15 -26 -26 -39 -26 -19 1 -17 4 13 30 40
34 50 33 26 -4z m235 4 c34 -29 35 -29 10 -30 -18 0 -30 9 -42 30 -22 38 -12
38 32 0z m-264 -81 c-3 -17 -6 -38 -6 -45 0 -9 -11 -14 -30 -14 -34 0 -34 1
-19 53 8 30 14 37 36 37 23 0 25 -3 19 -31z m124 -14 l0 -45 -55 0 c-59 0 -60
1 -49 59 6 30 9 31 55 31 l49 0 0 -45z m199 8 c15 -52 15 -53 -19 -53 -19 0
-30 5 -30 14 0 7 -3 28 -6 45 -6 28 -4 31 19 31 22 0 28 -7 36 -37z m-329 -87
c0 -7 3 -28 6 -45 6 -28 4 -31 -19 -31 -22 0 -28 7 -36 38 -15 51 -15 52 19
52 19 0 30 -5 30 -14z m130 -31 l0 -45 -49 0 c-46 0 -49 1 -55 31 -11 58 -10
59 49 59 l55 0 0 -45z m-95 -91 c24 -37 14 -38 -26 -4 -30 26 -32 29 -13 30
13 0 29 -11 39 -26z m95 -14 c0 -39 -1 -40 -22 -29 -24 12 -57 48 -58 62 0 4
18 7 40 7 l40 0 0 -40z"/>
<path d="M330 145 c0 -58 3 -105 7 -105 3 0 14 7 23 15 16 14 18 13 30 -15 10
-24 17 -29 34 -24 32 10 39 20 27 42 -17 32 -13 42 14 42 14 0 25 3 25 8 0 8
-145 142 -154 142 -3 0 -6 -47 -6 -105z m101 -23 c-24 -4 -24 -3 -4 -64 9 -30
-14 -20 -27 12 -14 33 -20 36 -38 18 -9 -9 -12 3 -12 56 l0 68 52 -44 c47 -39
50 -43 29 -46z"/>
</g>
</svg>
